{"title":"University Challenge 2016/7 S46E07","uid":15625348,"size":523460254,"categoryP":"video","categoryS":"tv_shows","magnet":"?xt=urn:btih:cfc86b43a10331f8d1c8dccc43db3542b6b18bc5&amp;dn=University+Challenge+2016%2F7+S46E07&amp;tr=udp%3A%2F%2Ftracker.leechers-paradise.org%3A6969&amp;tr=udp%3A%2F%2Fzer0day.ch%3A1337&amp;tr=udp%3A%2F%2Fopen.demonii.com%3A1337&amp;tr=udp%3A%2F%2Ftracker.coppersurfer.tk%3A6969&amp;tr=udp%3A%2F%2Fexodus.desync.com%3A6969","seeders":1,"leechers":2,"uploader":"RoaElson","files":4,"time":1471906984,"description":"\nUniversity Challenge 2016/7 S46E07\r\n\r\nThe team representing Balliol College, Oxford, fights it out against the Imperial College team for a place in the second round of the student quiz.\r\n\r\nFirst broadcast: 22 August 2016\r\nDuration: 29 minutes\r\n\r\nMedia info:\r\n\r\nGeneral\r\nFormat : MPEG-4\r\nFormat profile : Base Media\r\nCodec ID : isom (isom/iso2/avc1/mp41)\r\nFile size : 498 MiB\r\nDuration : 29mn 0s\r\nOverall bit rate mode : Variable\r\nOverall bit rate : 2 402 Kbps\r\n\r\nVideo\r\nID : 1\r\nFormat : AVC\r\nFormat/Info : Advanced Video Codec\r\nFormat profile :   \r\nFormat settings, CABAC : Yes\r\nFormat settings, ReFrames : 2 frames\r\nCodec ID : avc1\r\nCodec ID/Info : Advanced Video Coding\r\nDuration : 29mn 0s\r\nBit rate mode : Variable\r\nBit rate : 2 303 Kbps\r\nMaximum bit rate : 3 500 Kbps\r\nWidth : 1 280 pixels\r\nHeight : 720 pixels\r\nDisplay aspect ratio : 16:9\r\nFrame rate mode : Constant\r\nFrame rate : 25.000 fps\r\nColor space : YUV\r\nChroma subsampling : 4:2:0\r\nBit depth : 8 bits\r\nScan type : Progressive\r\nBits/(Pixel*Frame) : 0.100\r\nStream size : 478 MiB (96%)\r\n\r\nAudio\r\nID : 2\r\nFormat : AAC\r\nFormat/Info : Advanced Audio Codec\r\nFormat profile : LC\r\nCodec ID : 40\r\nDuration : 28mn 59s\r\nBit rate mode : Constant\r\nBit rate : 93.5 Kbps\r\nChannel(s) : 2 channels\r\nChannel positions : Front: L R\r\nSampling rate : 48.0 KHz\r\nFrame rate : 46.875 fps (1024 spf)\r\nCompression mode : Lossy\r\nStream size : 19.4 MiB (4%)","torrent":{"xt":"urn:btih:cfc86b43a10331f8d1c8dccc43db3542b6b18bc5","amp;dn":"University+Challenge+2016%2F7+S46E07","amp;tr":["udp%3A%2F%2Ftracker.leechers-paradise.org%3A6969","udp%3A%2F%2Fzer0day.ch%3A1337","udp%3A%2F%2Fopen.demonii.com%3A1337","udp%3A%2F%2Ftracker.coppersurfer.tk%3A6969","udp%3A%2F%2Fexodus.desync.com%3A6969"],"infoHash":"cfc86b43a10331f8d1c8dccc43db3542b6b18bc5","infoHashBuffer":{"type":"Buffer","data":[207,200,107,67,161,3,49,248,209,200,220,204,67,219,53,66,182,177,139,197]},"announce":[],"urlList":[]}}